<svg xmlns="http://www.w3.org/2000/svg" width="32" height="32" viewBox="0 0 32 32">
  <path fill="#000000" fill-rule="evenodd" d="M22.4,30 L24.4,30 C24.8416,30 25.2,29.6416 25.2,29.2 L25.2,25.8165333 C26.7312,25.7813333 27.9648,24.5477333 28,23.0165333 L28,4.8 C28,3.2544 26.7456,2 25.2,2 L6.8,2 C5.2544,2 4,3.2544 4,4.8 L4,23.3210667 C4.02293333,24.8229333 5.25813333,26.0229333 6.76053333,26 L6.8,29.2 C6.8,29.6416 7.1584,30 7.6,30 L9.6,30 C10.0416,30 10.4,29.6416 10.4,29.2 L10.4,26 L21.6,26 L21.6,29.2 C21.6,29.6416 21.9584,30 22.4,30 Z M23.5453121,22.1249871 C21.9663912,22.1144878 21.184932,20.2319634 22.3056458,19.1368865 C23.426893,18.0397097 25.3333333,18.8234824 25.3333333,20.3773787 C25.3311997,21.347514 24.5289371,22.1286618 23.5453121,22.1249871 Z M8.43420098,22.1249871 C6.85528007,22.1144878 6.0738209,20.2319634 7.1945347,19.1368865 C8.31578191,18.0397097 10.2222222,18.8234824 10.2222222,20.3773787 C10.2200885,21.347514 9.41782603,22.1286618 8.43420098,22.1249871 Z M7.88405797,16 C7.21205797,16 6.66666667,15.454 6.66666667,14.78125 L6.66666667,5.84375 C6.66666667,5.171 7.21205797,4.625 7.88405797,4.625 L24.115942,4.625 C24.787942,4.625 25.3333333,5.171 25.3333333,5.84375 L25.3333333,14.78125 C25.3333333,15.454 24.787942,16 24.115942,16 L7.88405797,16 Z"/>
</svg>
