<svg xmlns="http://www.w3.org/2000/svg" width="32" height="32" viewBox="0 0 32 32">
  <g fill="#000000" fill-rule="evenodd" transform="translate(4 5)">
    <path d="M.353678202 5.80387304C.634263465 4.32109019 1.93277735 3.2 3.50278418 3.2L20.4972158 3.2C22.1827175 3.2 23.5643619 4.4961403 23.6927656 6.15325419 23.1147477 5.3333726 22.1627021 4.8 21.0861588 4.8L2.66895016 4.8C1.76132006 4.8.937078006 5.18570699.353678202 5.80387304zM.289964975 2.67338358C.543428443 1.15626742 1.86139523.8817842e-16 3.44083899.8817842e-16L20.559161.8817842e-16C22.2672987.8817842e-16 23.6623444 1.339891 23.749688 3.03675968 23.1785096 2.16977376 22.1988313 1.6 21.0861588 1.6L2.66895016 1.6C1.72776292 1.6.876243797 2.01475516.289964975 2.67338358z"/>
    <rect width="23.445" height="13.6" x=".278" y="6.4" rx="3.2"/>
  </g>
</svg>
