<svg xmlns="http://www.w3.org/2000/svg" width="32" height="32" viewBox="0 0 32 32">
  <path fill="#000000" fill-rule="evenodd" d="M7.61422791,29.7977778 C7.46429862,29.6629623 7.3893351,29.4814826 7.3893351,29.2533333 L7.3893351,27.0755556 C5.84720529,26.9303696 4.52463462,26.5674103 3.42158343,25.9866667 C2.31853224,25.405923 1.48322445,24.6955598 0.915635002,23.8555556 C0.348045555,23.0155514 0.0428369394,22.1185233 0,21.1644444 C0,20.9985177 0.0696089824,20.8481488 0.208829036,20.7133333 C0.348049089,20.5785178 0.514039739,20.5111111 0.706805967,20.5111111 L3.59828492,20.5111111 C3.85530656,20.5111111 4.05342443,20.5577773 4.19264448,20.6511111 C4.33186454,20.7444449 4.46572796,20.8948138 4.59423878,21.1022222 C4.82984195,21.8074109 5.3278139,22.3985161 6.08816958,22.8755556 C6.84852525,23.352595 7.89265999,23.5911111 9.22060511,23.5911111 C10.6984795,23.5911111 11.8175778,23.3474098 12.5779335,22.86 C13.3382891,22.3725902 13.7184613,21.703708 13.7184613,20.8533333 C13.7184613,20.2933305 13.5256979,19.8266685 13.1401655,19.4533333 C12.754633,19.0799981 12.1709885,18.7533347 11.3892143,18.4733333 C10.6074402,18.1933319 9.4562147,17.8562983 7.93550335,17.4622222 C5.40812393,16.8814786 3.55545409,16.1140788 2.37743825,15.16 C1.19942242,14.2059212 0.610423335,12.837046 0.610423335,11.0533333 C0.610423335,9.43554747 1.21548603,8.06667227 2.42562957,6.94666667 C3.63577311,5.82666107 5.29032507,5.14222347 7.3893351,4.89333333 L7.3893351,2.74666667 C7.3893351,2.51851738 7.46429862,2.33703771 7.61422791,2.20222222 C7.7641572,2.06740673 7.94621146,2 8.16039616,2 L10.1523039,2 C10.387907,2 10.5753158,2.06740673 10.7145359,2.20222222 C10.853756,2.33703771 10.9233649,2.51851738 10.9233649,2.74666667 L10.9233649,4.95555556 C12.3155655,5.14222316 13.5096272,5.54147842 14.5055861,6.15333333 C15.5015449,6.76518824 16.2618892,7.47555151 16.7866417,8.28444444 C17.3113942,9.09333738 17.5951847,9.88147764 17.6380216,10.6488889 C17.6380216,10.8355565 17.5737672,10.9911105 17.4452564,11.1155556 C17.3167455,11.2400006 17.1561094,11.3022222 16.9633432,11.3022222 L13.9112265,11.3022222 C13.4614387,11.3022222 13.1508755,11.1155574 12.9795277,10.7422222 C12.8510169,10.0785152 12.4280085,9.52370593 11.7104898,9.07777778 C10.992971,8.63184962 10.0987633,8.40888889 9.02783985,8.40888889 C7.84982401,8.40888889 6.92348909,8.62666449 6.2488073,9.06222222 C5.5741255,9.49777996 5.23678966,10.1303662 5.23678966,10.96 C5.23678966,11.5200028 5.40278031,11.9866648 5.73476659,12.36 C6.06675287,12.7333352 6.60220658,13.0651837 7.34114379,13.3555556 C8.08008099,13.6459274 9.1349248,13.9570354 10.5057069,14.2888889 C12.4119507,14.7037058 13.9272847,15.1703678 15.0517543,15.6888889 C16.176224,16.20741 17.0061772,16.8607368 17.541639,17.6488889 C18.0771007,18.437041 18.3448276,19.4429568 18.3448276,20.6666667 C18.3448276,22.4711201 17.6755104,23.9333277 16.3368561,25.0533333 C14.9982017,26.1733389 13.1937227,26.8474063 10.9233649,27.0755556 L10.9233649,29.2533333 C10.9233649,29.4814826 10.853756,29.6629623 10.7145359,29.7977778 C10.5753158,29.9325933 10.387907,30 10.1523039,30 L8.16039616,30 C7.94621146,30 7.7641572,29.9325933 7.61422791,29.7977778 Z M20,9.55670557 C20,9.04154875 20.4130672,8.62393162 20.9216945,8.62393162 L31.0783055,8.62393162 C31.5873433,8.62393162 32,9.04106877 32,9.55670557 L32,10.6911577 C32,11.2063145 31.5869328,11.6239316 31.0783055,11.6239316 L20.9216945,11.6239316 C20.4126567,11.6239316 20,11.2067945 20,10.6911577 L20,9.55670557 Z M20,16.3122611 C20,15.7971043 20.4130672,15.3794872 20.9216945,15.3794872 L31.0783055,15.3794872 C31.5873433,15.3794872 32,15.7966243 32,16.3122611 L32,17.4467132 C32,17.9618701 31.5869328,18.3794872 31.0783055,18.3794872 L20.9216945,18.3794872 C20.4126567,18.3794872 20,17.96235 20,17.4467132 L20,16.3122611 Z M20,23.4233722 C20,22.9082154 20.4130672,22.4905983 20.9216945,22.4905983 L31.0783055,22.4905983 C31.5873433,22.4905983 32,22.9077354 32,23.4233722 L32,24.5578243 C32,25.0729812 31.5869328,25.4905983 31.0783055,25.4905983 L20.9216945,25.4905983 C20.4126567,25.4905983 20,25.0734611 20,24.5578243 L20,23.4233722 Z"/>
</svg>
