<svg xmlns="http://www.w3.org/2000/svg" width="32" height="32" viewBox="0 0 32 32">
  <path fill="#000000" fill-rule="evenodd" d="M19.3860247,28.885904 C19.3860247,30.0194421 18.4872887,31 17.4442551,31 L14.5094447,31 C13.4683047,31 12.567675,30.0215038 12.567675,28.885904 L12.567675,15.3821001 C12.567675,14.196194 13.466411,13.268004 14.5094447,13.268004 L17.4442551,13.268004 C18.4853951,13.268004 19.3860247,14.2465002 19.3860247,15.3821001 L19.3860247,28.885904 Z M15.9759504,9.7623446 C13.797472,9.7623446 12,7.80329052 12,5.3811723 C12,2.95905408 13.7993656,1 15.9759504,1 C18.2006344,1 20,2.95905408 20,5.3811723 C20,7.8053007 18.2024807,9.7623446 15.9759504,9.7623446 Z"/>
</svg>
