<svg xmlns="http://www.w3.org/2000/svg" width="32" height="32" viewBox="0 0 32 32">
  <path fill="#000000" fill-rule="evenodd" d="M26.3531033,15.8910972 L24.6557843,2.06754344 L26.3433298,2.30471249 C27.3827528,2.45079386 28.1063072,3.41640337 27.9604323,4.45435713 L26.3531033,15.8910972 Z M7.71827833,1.92983898 L7.76411892,1.60366627 C7.90950583,0.569184611 8.8695334,-0.151069444 9.909407,-0.00492474123 L16.235143,0.884099482 L7.71827833,1.92983898 Z M15.5381097,17.8584366 C15.6203309,17.2423087 15.6590948,16.6204939 15.6586341,16.0033876 C15.6578511,14.9545626 15.5362755,13.9551086 15.3600298,13.4562995 C14.8019194,11.8669424 13.1308013,10.9509087 11.490806,11.3348883 C9.84674852,11.7194255 8.76829456,13.3335933 8.9740381,15.0057779 C8.9813468,15.0651796 8.99114179,15.120763 9.00307081,15.1755525 C9.01611077,15.2476255 9.01946301,15.2809421 9.02295321,15.3193134 C9.0346285,15.4476714 9.04381011,15.5913139 9.04901082,15.7470556 C9.06339007,16.1776602 9.04513879,16.6215119 8.98450513,17.0507997 C8.83653717,18.0984164 8.47016804,18.850649 7.88930555,19.2290414 C7.74807299,19.3011988 7.61119715,19.3784928 7.47875427,19.4611903 L7.14497073,19.6863986 C6.69688266,20.016346 6.30949637,20.4099129 5.99187457,20.8497966 L4.01440332,4.77786038 C3.88621602,3.73601563 4.62789215,2.7878224 5.67199389,2.6598877 L22.1727374,0.638037122 C23.2163867,0.510157859 24.1669344,1.25584039 24.2945352,2.29291802 L27.4526613,27.9606496 C27.5808486,29.0024944 26.8391725,29.9506876 25.7950707,30.0786223 L21.4456804,30.6115569 C21.6096715,30.2049307 21.6758215,29.7522414 21.618517,29.2864981 C21.5974174,29.1150103 21.5605311,28.9492947 21.5094933,28.7906359 C22.7153948,28.4103744 23.5150198,27.2129829 23.3551345,25.913512 C23.2821636,25.3204398 23.0201534,24.7962658 22.6367958,24.3943258 C22.8886998,23.9244584 23.0029571,23.3748483 22.9329213,22.8056309 C22.8028097,21.7481466 22.0720462,20.9104423 21.1242633,20.5935349 C21.1597073,20.3585104 21.1641344,20.114809 21.1336873,19.8673496 C20.9532428,18.4007836 19.6173307,17.3586061 18.1519487,17.5381606 L15.5381097,17.8584366 L15.5381097,17.8584366 Z M8.00964062,20.9833215 L8.01250427,20.9829706 C8.20007825,20.8442672 8.40017722,20.7246726 8.60980097,20.6210654 C10.9602404,19.1869148 10.4621202,15.3085344 10.4346264,15.1063408 C10.42404,15.0651879 10.4118765,15.0253914 10.4068015,14.9841448 C10.2896551,14.0320351 10.9013318,13.0900597 11.8360084,12.8714433 C12.7686804,12.6530725 13.7206301,13.1749234 14.0378837,14.0783812 C14.2131567,14.5744456 14.5572358,17.2173913 13.70004,19.7880116 L13.7226628,19.7852396 C13.5215664,20.1282549 13.4201948,20.5352282 13.4724595,20.9600112 C13.5329006,21.4512471 13.7838316,21.8700047 14.1351629,22.1668463 C13.3000616,22.3962312 12.8117122,23.1852781 12.9346736,24.1846496 C13.0155906,24.8423041 13.4280565,25.3785043 13.9836053,25.6482877 C13.5319311,26.0455575 13.2775822,26.6527053 13.3562789,27.2923144 C13.4829408,28.3217615 14.4213151,29.0569441 15.4500373,28.9340922 C15.1926372,29.3014516 15.0589633,29.7577404 15.1178889,30.2366596 C15.1767088,30.7147195 15.4170268,31.1251827 15.7559431,31.4203472 L11.2617402,31.9710259 C9.15037543,32.2297332 7.22780877,30.7271843 6.9678946,28.6147267 L6.46843647,24.5553711 C6.29193711,23.1232316 6.92538054,21.781711 8.00964062,20.9833215 Z M16.8337854,28.7648311 L18.8331816,28.5198433 C19.5181653,28.4359116 20.1421886,28.924383 20.2266651,29.6109675 C20.3110359,30.2966927 19.8237847,30.9222018 19.1390874,31.0060984 L17.1396911,31.2510861 C16.4547075,31.3350178 15.8288603,30.8458976 15.7444895,30.1601724 C15.660013,29.4735879 16.1488017,28.8487627 16.8337854,28.7648311 Z M20.8744141,27.6344335 L15.377363,28.307992 C14.6912339,28.392064 14.0673207,27.9021253 13.9828794,27.2158273 C13.8985791,26.5306749 14.3849008,25.9046983 15.0713162,25.8205912 L20.5683673,25.1470327 C21.2553555,25.0628554 21.8789823,25.5528291 21.9632826,26.2379815 C22.0477239,26.9242795 21.5614023,27.5502562 20.8744141,27.6344335 Z M20.4526326,24.5253365 L14.9558678,25.1988599 C14.2688796,25.2830371 13.6453233,24.7936363 13.5609525,24.1079111 C13.4765818,23.4221859 13.7861064,22.819326 14.4725219,22.7352189 L20.1468325,22.0399407 C20.8329616,21.9558687 21.4566986,22.4443752 21.5410694,23.1301003 C21.6254401,23.8158255 21.1387617,24.4412645 20.4526326,24.5253365 Z M15.4941208,21.973292 C14.8079917,22.057364 14.1828934,21.5696058 14.0984521,20.8833077 C14.0139051,20.1961504 14.5019758,19.5725762 15.1883912,19.4884691 L18.3461315,19.1015484 C19.0311152,19.0176167 19.6572884,19.5046617 19.7418354,20.191819 C19.8262767,20.8781171 19.3371311,21.5024045 18.6518611,21.5863713 L15.4941208,21.973292 L15.4941208,21.973292 Z"/>
</svg>
