<svg xmlns="http://www.w3.org/2000/svg" width="32" height="32" viewBox="0 0 32 32">
  <path fill="#000000" fill-rule="evenodd" d="M14.4711033,29.7977778 C14.3239923,29.6629623 14.2504378,29.4814826 14.2504378,29.2533333 L14.2504378,27.0755556 C12.7372954,26.9303696 11.4395851,26.5674103 10.357268,25.9866667 C9.27495081,25.405923 8.45534429,24.6955598 7.89842382,23.8555556 C7.34150335,23.0155514 7.04203173,22.1185233 7,21.1644444 C7,20.9985177 7.06830054,20.8481488 7.20490368,20.7133333 C7.34150681,20.5785178 7.50437734,20.5111111 7.69352014,20.5111111 L10.530648,20.5111111 C10.7828384,20.5111111 10.9772322,20.5577773 11.1138354,20.6511111 C11.2504385,20.7444449 11.3817857,20.8948138 11.5078809,21.1022222 C11.7390554,21.8074109 12.227667,22.3985161 12.9737303,22.8755556 C13.7197936,23.352595 14.7443017,23.5911111 16.0472855,23.5911111 C17.4973803,23.5911111 18.5954429,23.3474098 19.3415061,22.86 C20.0875694,22.3725902 20.4605954,21.703708 20.4605954,20.8533333 C20.4605954,20.2933305 20.2714555,19.8266685 19.8931699,19.4533333 C19.5148843,19.0799981 18.9422105,18.7533347 18.1751313,18.4733333 C17.4080522,18.1933319 16.2784663,17.8562983 14.7863398,17.4622222 C12.3064675,16.8814786 10.4886222,16.1140788 9.33274956,15.16 C8.17687688,14.2059212 7.59894921,12.837046 7.59894921,11.0533333 C7.59894921,9.43554747 8.19263855,8.06667227 9.38003503,6.94666667 C10.5674315,5.82666107 12.1908829,5.14222347 14.2504378,4.89333333 L14.2504378,2.74666667 C14.2504378,2.51851738 14.3239923,2.33703771 14.4711033,2.20222222 C14.6182144,2.06740673 14.7968466,2 15.0070053,2 L16.9614711,2 C17.1926456,2 17.3765317,2.06740673 17.5131349,2.20222222 C17.649738,2.33703771 17.7180385,2.51851738 17.7180385,2.74666667 L17.7180385,4.95555556 C19.0840699,5.14222316 20.2556869,5.54147842 21.2329247,6.15333333 C22.2101625,6.76518824 22.9562146,7.47555151 23.4711033,8.28444444 C23.9859921,9.09333738 24.2644481,9.88147764 24.3064799,10.6488889 C24.3064799,10.8355565 24.2434332,10.9911105 24.117338,11.1155556 C23.9912428,11.2400006 23.8336262,11.3022222 23.6444834,11.3022222 L20.6497373,11.3022222 C20.2084041,11.3022222 19.9036786,11.1155574 19.7355517,10.7422222 C19.6094565,10.0785152 19.1943993,9.52370593 18.4903678,9.07777778 C17.7863362,8.63184962 16.908937,8.40888889 15.8581436,8.40888889 C14.7022709,8.40888889 13.7933483,8.62666449 13.1313485,9.06222222 C12.4693487,9.49777996 12.1383538,10.1303662 12.1383538,10.96 C12.1383538,11.5200028 12.3012243,11.9866648 12.6269702,12.36 C12.9527162,12.7333352 13.478105,13.0651837 14.2031524,13.3555556 C14.9281998,13.6459274 15.9632157,13.9570354 17.3082312,14.2888889 C19.1786433,14.7037058 20.6654936,15.1703678 21.7688266,15.6888889 C22.8721596,16.20741 23.6865123,16.8607368 24.2119089,17.6488889 C24.7373056,18.437041 25,19.4429568 25,20.6666667 C25,22.4711201 24.343264,23.9333277 23.0297723,25.0533333 C21.7162806,26.1733389 19.9457204,26.8474063 17.7180385,27.0755556 L17.7180385,29.2533333 C17.7180385,29.4814826 17.649738,29.6629623 17.5131349,29.7977778 C17.3765317,29.9325933 17.1926456,30 16.9614711,30 L15.0070053,30 C14.7968466,30 14.6182144,29.9325933 14.4711033,29.7977778 Z"/>
</svg>
