<svg xmlns="http://www.w3.org/2000/svg" viewBox="0 0 374.02 192.6"><path fill="white" d="M26.69 51.17c15.75-14.71 42.16-15.22 57 2.52.87-.7 1.78-1.37 2.63-2.11 13.89-12.21 29.9-14.45 46.66-8.22 15.74 5.85 22.23 19.15 22.7 35.08.58 19.48.26 39 .07 58.48-.09 10-4.13 14.63-12.24 15.15-9.06.58-14.34-4-14.48-13.11-.24-16-.13-32-.21-48a84.21 84.21 0 0 0-.45-9.48c-1.31-11-8.39-17.09-19.22-16.69-10.51.39-17.58 7.41-17.75 18.35-.25 16.16-.07 32.32-.1 48.49 0 2.5 0 5-.27 7.49-.83 9.15-5.16 13.18-13.72 12.88s-12.85-4.82-12.92-13.78c-.13-17.49 0-35-.14-52.49-.07-11.23-3.9-17.31-12.31-20-13.25-4.23-24.61 3.85-24.86 18.14-.29 16.32 0 32.66-.06 49a61.37 61.37 0 0 1-.25 7c-1 8.4-5.72 12.48-14 12.24C4.79 151.86.22 147.5.16 139q-.3-42.25-.09-84.49C.1 47 4 42.19 10.3 41c7.61-1.41 11.74.91 15.32 8.57a11.38 11.38 0 0 0 1.07 1.6zM289.51 106.64c-4.36 4.9-8.33 9.13-12 13.61-.92 1.13-1.12 3.06-1.19 4.65-.23 5.32 0 10.68-.43 16-.65 7.38-5.54 11.27-13.32 11.2-7.48-.07-12.46-4.44-13.17-11.59-.08-.83-.09-1.66-.09-2.5 0-41.16-.05-82.32.05-123.49 0-11.28 9.42-17.47 19.45-13.1 5.45 2.38 7.29 7.06 7.35 12.56.11 9.83.06 19.66.06 29.5v37c0 1.58.18 3.17.38 6.37l18-20.27c6.3-7.1 12.41-14.38 18.94-21.26 5.1-5.37 11.54-5.93 16.54-2.13 6.07 4.61 7 11.61 1.74 17.94-6.67 8.08-13.63 15.95-20.7 23.69-2.16 2.37-2.6 3.93-.71 6.79 7.62 11.53 14.93 23.27 22.33 34.94 1.34 2.11 2.67 4.23 3.81 6.45 3.52 6.88 2 12.92-4.23 16.88-6.39 4.09-13.11 3.06-17.44-3.44-7.65-11.5-14.86-23.29-22.26-35-.85-1.36-1.76-2.73-3.11-4.8zM200.39 108.2a38.12 38.12 0 0 0 1.89-3.87c5.63-17.24 11.18-34.51 16.86-51.74 3.31-10 8.27-13.4 16.24-11.36 7.15 1.83 11.1 7.66 8.87 14.72-5.37 17-11.18 33.8-16.95 50.64-7.39 21.57-14.74 43.16-22.43 64.63-5.74 16-20.61 24.07-37 20.58-6.42-1.37-10.1-6.4-9.6-13.1.45-6 4.79-10.06 11.22-10.54 8.47-.63 10.85-2.95 14.12-10.94 3-7.45 3.12-14.2.3-22-8.66-23.76-16.47-47.84-24.59-71.8a71 71 0 0 1-2.1-7.18c-1.63-7.28 1.29-12.53 8.11-14.83 6.63-2.23 12.47-.16 15.09 6.76 4.54 12 8.25 24.26 12.27 36.42 2.51 7.55 4.93 15.1 7.7 23.61zM372 96.4v37a56.11 56.11 0 0 1-.52 7.46c-1.1 7.92-5.89 11.63-14.28 11.21-7.43-.38-11.87-4.69-12-12.5-.26-13.65-.2-27.31-.21-41 0-14.65 0-29.31.13-44 .07-8.57 4.66-13.57 12.42-13.77 8.67-.22 14 4.22 14.2 13.14.38 14.14.1 28.3.1 42.46zM374 16.06c-.32 9-7.36 15.82-16.12 15.52a15.84 15.84 0 0 1-15.2-16C342.92 7 350.75-.29 359.17.21 367.42.7 374.3 8 374 16.06z" /></svg>