<svg xmlns="http://www.w3.org/2000/svg" width="32" height="32" viewBox="0 0 32 32">
  <path fill="#000000" fill-rule="evenodd" d="M23.7471521,4.47537061 L20.2717815,1 L1,20.2717815 L4.47537061,23.7471521 C5.59278001,23.1887545 6.86744502,23.41604 7.7680432,24.3166382 C8.66892746,25.2175225 8.89735738,26.4933318 8.33752926,27.6093108 L11.7282185,31 L31,11.7282185 L27.6093108,8.33752926 C26.7016634,8.68673715 25.2175225,8.66892746 24.3166382,7.7680432 C23.41604,6.86744502 23.37706,5.36213377 23.7471521,4.47537061 Z M27.1989031,12.9545429 L12.9545429,27.1989031 L4.80109685,19.0454571 L19.0454571,4.80109685 L27.1989031,12.9545429 Z M12.9443659,26.3508226 L26.3508226,12.9443659 L19.0556341,5.64917736 L5.64917736,19.0556341 L12.9443659,26.3508226 Z"/>
</svg>
