<svg xmlns="http://www.w3.org/2000/svg" width="32" height="32" viewBox="0 0 32 32">
  <path fill="#000000" fill-rule="evenodd" d="M0,8.97763167 C0,4.01942261 4.02042037,0 8.97763167,0 L23.0223683,0 C27.9805774,0 32,4.02042037 32,8.97763167 L32,23.0223683 C32,27.9805774 27.9795796,32 23.0223683,32 L8.97763167,32 C4.01942261,32 0,27.9795796 0,23.0223683 L0,8.97763167 Z M16.5,7 C12.9097925,7 10,9.74917602 10,13.1412092 C10,17.2836286 16.5,25 16.5,25 C16.5,25 23,17.2745906 23,13.1412092 C23,9.750103 20.0902075,7 16.5,7 Z M16.5,15.5302554 C15.1039962,15.5302554 13.9723585,14.461152 13.9723585,13.1412092 C13.9723585,11.8222628 15.1039226,10.7530899 16.5,10.7530899 C17.8960774,10.7530899 19.0276415,11.8221933 19.0276415,13.1412092 C19.0276415,14.4610593 17.8960774,15.5302554 16.5,15.5302554 Z"/>
</svg>
