<svg xmlns="http://www.w3.org/2000/svg" width="32" height="32" viewBox="0 0 32 32">
  <path fill="#000000" fill-rule="evenodd" d="M0,8.97763167 C0,4.01942261 4.02042037,0 8.97763167,0 L23.0223683,0 C27.9805774,0 32,4.02042037 32,8.97763167 L32,23.0223683 C32,27.9805774 27.9795796,32 23.0223683,32 L8.97763167,32 C4.01942261,32 0,27.9795796 0,23.0223683 L0,8.97763167 Z M14.971,25.6301667 C15.0690005,25.7211671 15.1879993,25.7666667 15.328,25.7666667 L16.63,25.7666667 C16.7840008,25.7666667 16.9064995,25.7211671 16.9975,25.6301667 C17.0885005,25.5391662 17.134,25.4166674 17.134,25.2626667 L17.134,23.7926667 C18.6180074,23.6386659 19.7974956,23.1836704 20.6725,22.4276667 C21.5475044,21.6716629 21.985,20.6846728 21.985,19.4666667 C21.985,18.6406625 21.8100017,17.9616693 21.46,17.4296667 C21.1099982,16.897664 20.5675037,16.4566684 19.8325,16.1066667 C19.0974963,15.7566649 18.1070062,15.4416681 16.861,15.1616667 C15.9649955,14.9376655 15.2755024,14.7276676 14.7925,14.5316667 C14.3094976,14.3356657 13.9595011,14.1116679 13.7425,13.8596667 C13.5254989,13.6076654 13.417,13.2926686 13.417,12.9146667 C13.417,12.3546639 13.6374978,11.9276681 14.0785,11.6336667 C14.5195022,11.3396652 15.1249961,11.1926667 15.895,11.1926667 C16.5950035,11.1926667 17.1794977,11.3431652 17.6485,11.6441667 C18.1175023,11.9451682 18.3939996,12.3196644 18.478,12.7676667 C18.5900006,13.0196679 18.7929985,13.1456667 19.087,13.1456667 L21.082,13.1456667 C21.2080006,13.1456667 21.3129996,13.1036671 21.397,13.0196667 C21.4810004,12.9356662 21.523,12.8306673 21.523,12.7046667 C21.4949999,12.1866641 21.3095017,11.6546694 20.9665,11.1086667 C20.6234983,10.5626639 20.1265033,10.0831687 19.4755,9.67016667 C18.8244967,9.2571646 18.0440045,8.9876673 17.134,8.86166667 L17.134,7.37066667 C17.134,7.2166659 17.0885005,7.09416712 16.9975,7.00316667 C16.9064995,6.91216621 16.7840008,6.86666667 16.63,6.86666667 L15.328,6.86666667 C15.1879993,6.86666667 15.0690005,6.91216621 14.971,7.00316667 C14.8729995,7.09416712 14.824,7.2166659 14.824,7.37066667 L14.824,8.81966667 C13.4519931,8.98766751 12.370504,9.44966289 11.5795,10.2056667 C10.788496,10.9616704 10.393,11.8856612 10.393,12.9776667 C10.393,14.1816727 10.7779961,15.1056634 11.548,15.7496667 C12.3180038,16.3936699 13.5289917,16.9116647 15.181,17.3036667 C16.175005,17.569668 16.9274974,17.7971657 17.4385,17.9861667 C17.9495026,18.1751676 18.3309987,18.3956654 18.583,18.6476667 C18.8350013,18.8996679 18.961,19.2146648 18.961,19.5926667 C18.961,20.1666695 18.7125025,20.618165 18.2155,20.9471667 C17.7184975,21.2761683 16.9870048,21.4406667 16.021,21.4406667 C15.1529957,21.4406667 14.4705025,21.2796683 13.9735,20.9576667 C13.4764975,20.6356651 13.1510008,20.236669 12.997,19.7606667 C12.9129996,19.620666 12.8255005,19.519167 12.7345,19.4561667 C12.6434995,19.3931664 12.5140008,19.3616667 12.346,19.3616667 L10.456,19.3616667 C10.3299994,19.3616667 10.2215005,19.4071662 10.1305,19.4981667 C10.0394995,19.5891671 9.994,19.6906661 9.994,19.8026667 C10.0220001,20.4466699 10.2214981,21.0521638 10.5925,21.6191667 C10.9635019,22.1861695 11.5094964,22.6656647 12.2305,23.0576667 C12.9515036,23.4496686 13.815995,23.6946662 14.824,23.7926667 L14.824,25.2626667 C14.824,25.4166674 14.8729995,25.5391662 14.971,25.6301667 Z"/>
</svg>
