<svg xmlns="http://www.w3.org/2000/svg" width="32" height="32" viewBox="0 0 32 32">
  <path fill="#000000" fill-rule="evenodd" d="M0,8.97763167 C0,4.01942261 4.02042037,0 8.97763167,0 L23.0223683,0 C27.9805774,0 32,4.02042037 32,8.97763167 L32,23.0223683 C32,27.9805774 27.9795796,32 23.0223683,32 L8.97763167,32 C4.01942261,32 0,27.9795796 0,23.0223683 L0,8.97763167 Z M6.15384615,8.56146684 L6.15384615,9.45562718 C6.15384615,9.98455286 6.57359497,10.3931624 7.09138137,10.3931624 L7.98554171,10.3931624 C8.51446739,10.3931624 8.92307692,9.97341358 8.92307692,9.45562718 L8.92307692,8.56146684 C8.92307692,8.03254116 8.50332811,7.62393162 7.98554171,7.62393162 L7.09138137,7.62393162 C6.56245569,7.62393162 6.15384615,8.04368044 6.15384615,8.56146684 Z M10.7692308,8.56146684 L10.7692308,9.45562718 C10.7692308,9.98455286 11.1845898,10.3931624 11.6969612,10.3931624 L25.2261157,10.3931624 C25.7423449,10.3931624 26.1538462,9.97341358 26.1538462,9.45562718 L26.1538462,8.56146684 C26.1538462,8.03254116 25.7384871,7.62393162 25.2261157,7.62393162 L11.6969612,7.62393162 C11.1807321,7.62393162 10.7692308,8.04368044 10.7692308,8.56146684 Z M6.15384615,15.3170224 L6.15384615,16.2111827 C6.15384615,16.7401084 6.57359497,17.1487179 7.09138137,17.1487179 L7.98554171,17.1487179 C8.51446739,17.1487179 8.92307692,16.7289691 8.92307692,16.2111827 L8.92307692,15.3170224 C8.92307692,14.7880967 8.50332811,14.3794872 7.98554171,14.3794872 L7.09138137,14.3794872 C6.56245569,14.3794872 6.15384615,14.799236 6.15384615,15.3170224 Z M10.7692308,15.3170224 L10.7692308,16.2111827 C10.7692308,16.7401084 11.1845898,17.1487179 11.6969612,17.1487179 L25.2261157,17.1487179 C25.7423449,17.1487179 26.1538462,16.7289691 26.1538462,16.2111827 L26.1538462,15.3170224 C26.1538462,14.7880967 25.7384871,14.3794872 25.2261157,14.3794872 L11.6969612,14.3794872 C11.1807321,14.3794872 10.7692308,14.799236 10.7692308,15.3170224 Z M6.15384615,22.4281335 L6.15384615,23.3222938 C6.15384615,23.8512195 6.57359497,24.2598291 7.09138137,24.2598291 L7.98554171,24.2598291 C8.51446739,24.2598291 8.92307692,23.8400802 8.92307692,23.3222938 L8.92307692,22.4281335 C8.92307692,21.8992078 8.50332811,21.4905983 7.98554171,21.4905983 L7.09138137,21.4905983 C6.56245569,21.4905983 6.15384615,21.9103471 6.15384615,22.4281335 Z M10.7692308,22.4281335 L10.7692308,23.3222938 C10.7692308,23.8512195 11.1845898,24.2598291 11.6969612,24.2598291 L25.2261157,24.2598291 C25.7423449,24.2598291 26.1538462,23.8400802 26.1538462,23.3222938 L26.1538462,22.4281335 C26.1538462,21.8992078 25.7384871,21.4905983 25.2261157,21.4905983 L11.6969612,21.4905983 C11.1807321,21.4905983 10.7692308,21.9103471 10.7692308,22.4281335 Z"/>
</svg>
