<svg xmlns="http://www.w3.org/2000/svg" width="16" height="16" viewBox="0 0 16 16">
  <g fill="none" fill-rule="evenodd">
    <circle cx="8" cy="8" r="8" fill="#3CBCFF"/>
    <path fill="#FFFFFF" d="M7.42,12.32 C7.34066627,12.2406663 7.301,12.1443339 7.301,12.031 L7.301,8.716 L4.054,8.716 C3.9406661,8.716 3.84433373,8.67633373 3.765,8.597 C3.68566627,8.51766627 3.646,8.4213339 3.646,8.308 L3.646,7.39 C3.646,7.2766661 3.68566627,7.18033373 3.765,7.101 C3.84433373,7.02166627 3.9406661,6.982 4.054,6.982 L7.301,6.982 L7.301,3.769 C7.301,3.64433271 7.34066627,3.54516703 7.42,3.4715 C7.49933373,3.39783296 7.5956661,3.361 7.709,3.361 L8.729,3.361 C8.85366729,3.361 8.95283297,3.39783296 9.0265,3.4715 C9.10016704,3.54516703 9.137,3.64433271 9.137,3.769 L9.137,6.982 L12.384,6.982 C12.4973339,6.982 12.5936663,7.02166627 12.673,7.101 C12.7523337,7.18033373 12.792,7.2766661 12.792,7.39 L12.792,8.308 C12.792,8.4213339 12.755167,8.51766627 12.6815,8.597 C12.607833,8.67633373 12.5086673,8.716 12.384,8.716 L9.137,8.716 L9.137,12.031 C9.137,12.1443339 9.10016704,12.2406663 9.0265,12.32 C8.95283297,12.3993337 8.85366729,12.439 8.729,12.439 L7.709,12.439 C7.5956661,12.439 7.49933373,12.3993337 7.42,12.32 Z"/>
  </g>
</svg>
