<svg xmlns="http://www.w3.org/2000/svg" width="16" height="16" viewBox="0 0 16 16">
  <g fill="none" fill-rule="evenodd">
    <circle cx="8" cy="8" r="8" fill="#7ED321"/>
    <path fill="#FFFFFF" d="M12.9440699,7.74471015 C12.9142959,7.65197136 12.853742,7.55902602 12.7931881,7.49706247 L9.17202498,3.73236334 C9.02114318,3.57745445 8.82479567,3.5 8.62905168,3.5 C8.43250299,3.5 8.26673419,3.59273879 8.14663228,3.73236334 C8.01063749,3.87198788 7.93519659,4.05746546 7.93519659,4.27454445 C7.93519659,4.4763391 8.01063749,4.67710102 8.14663228,4.81672557 L10.5307659,7.26469913 L3.73952198,7.26469913 C3.33234231,7.26469913 3,7.58980126 3,8.0237527 C3,8.45791068 3.3166506,8.78301281 3.73952198,8.78301281 L10.5456529,8.78301281 L8.14663228,11.1832744 C8.01063749,11.322899 7.93519659,11.5083766 7.93519659,11.7254555 C7.93519659,11.9425345 7.99575048,12.1280121 8.14663228,12.2676367 C8.2824259,12.4072612 8.47816988,12.5 8.67471857,12.5 C8.88595309,12.5 9.05192306,12.4072612 9.17202498,12.2676367 L12.7931881,8.54982329 C12.8080751,8.53453895 12.8231633,8.50314408 12.838855,8.48765319 C12.838855,8.47236884 12.853742,8.47236884 12.868629,8.44097398 C13.0195108,8.24000551 13.0343978,7.96178914 12.9440699,7.74471015 Z" transform="matrix(-1 0 0 1 16 0)"/>
  </g>
</svg>
