<svg xmlns="http://www.w3.org/2000/svg" width="32" height="32" viewBox="0 0 32 32">
  <path fill="#000000" fill-rule="evenodd" d="M25.8460853,2 L6.14024238,2 C5.23566128,2 4.5,2.69916433 4.5,3.55513885 L4.5,22.2385494 C4.5,23.0961966 5.23742545,23.7936883 6.14024238,23.7936883 L7.69095285,23.7936883 L6.22492282,27.9719479 C5.94044948,28.7869426 6.37972924,29.7491299 7.26534545,29.944829 C8.33178968,30.1769081 9.11199639,29.6149004 9.34663177,28.9583884 L9.52040308,28.4683044 L22.4795969,28.4683044 L22.6538093,28.9583884 C23.273917,30.2454864 24.5591191,30.0004444 24.7346545,29.944829 C25.5946902,29.6755337 26.0595505,28.7936332 25.7755182,27.9719479 L24.3090472,23.7936883 L25.8597576,23.7936883 C26.7643387,23.7936883 27.5,23.0945239 27.5,22.2385494 L27.5,3.55513885 C27.4863276,2.69916433 26.757282,2 25.8460853,2 Z M7.78224894,18.3492387 C7.78224894,17.0571228 8.88662295,16.0150669 10.2441562,16.0150669 C11.6069819,16.0150669 12.7060634,17.0621407 12.7060634,18.3492387 C12.7060634,19.6413546 11.6016894,20.6834106 10.2441562,20.6834106 C8.88662295,20.6884285 7.78224894,19.6413546 7.78224894,18.3492387 Z M10.604048,25.3567722 L11.1535888,23.8016333 L20.8327389,23.8016333 L21.3822796,25.3567722 L10.604048,25.3567722 Z M21.7439356,20.6884285 C20.3811099,20.6884285 19.2820284,19.6413546 19.2820284,18.3542567 C19.2820284,17.0621407 20.3864024,16.0200848 21.7439356,16.0200848 C23.1067614,16.0200848 24.2058429,17.0671587 24.2058429,18.3542567 C24.2040787,19.6413546 23.0997047,20.6884285 21.7439356,20.6884285 Z M24.2040787,12.2775485 C24.2040787,12.6208582 23.9076972,12.9018621 23.5460412,12.9018621 L8.44028649,12.9018621 C8.07863046,12.9018621 7.78224894,12.6208582 7.78224894,12.2775485 L7.78224894,5.73751843 C7.78224894,5.39462683 8.07863046,5.11362299 8.44028649,5.11362299 L23.5513337,5.11362299 C23.9129897,5.11362299 24.2093712,5.39462683 24.2093712,5.73751843 L24.2093712,12.2775485 L24.2040787,12.2775485 Z"/>
</svg>
