<svg xmlns="http://www.w3.org/2000/svg" width="32" height="32" viewBox="0 0 32 32">
  <path fill="#000000" fill-rule="evenodd" d="M22.4254067,5.28437805 L19.1015433,5.28437805 L19.7609237,2.13851592 L21.6808841,2.13851592 C22.2797187,2.13851592 22.7673953,1.66044543 22.7673953,1.06925796 C22.7673953,0.478535996 22.2816108,0 21.6808841,0 L10.3228923,0 C9.72263859,0 9.23638108,0.478535996 9.23638108,1.06925796 C9.23638108,1.65858342 9.72263859,2.13851592 10.3228923,2.13851592 L12.2428527,2.13851592 L12.902233,5.28437805 L9.57836958,5.28437805 C7.87836032,5.28437805 6.5,6.6408507 6.5,8.31386468 L6.5,24.2279796 C6.5,25.9028556 7.87836032,27.2593282 9.57836958,27.2593282 L10.0920619,27.2593282 L8.68957787,30.5159798 C8.45496335,31.0578241 8.71370154,31.6871827 9.2661809,31.9162097 C9.40477376,31.9725354 9.54904277,32 9.68905466,32 C10.1124014,32 10.5149356,31.756077 10.6890045,31.3469008 L12.4495594,27.2574662 L19.5504328,27.2574662 L21.3114608,31.3469008 C21.4869487,31.756077 21.8875908,32 22.3109376,32 C22.4514225,32 22.5956915,31.9725354 22.7342843,31.9162097 C23.2862907,31.6853207 23.5450289,31.0578241 23.3104144,30.5159798 L21.9079304,27.2593282 L22.4216226,27.2593282 C24.1216319,27.2593282 25.4999922,25.9028556 25.4999922,24.2279796 L25.4999922,8.31386468 C25.5037763,6.6408507 24.125416,5.28437805 22.4254067,5.28437805 Z M14.5,2 L17.5,2 L16.8577348,5 L15.1422652,5 L14.5,2 Z M9.56876977,10.6044696 C9.60692351,10.261116 9.83956821,10 10.1741113,10 L21.826354,10 C22.1604318,10 22.3912153,10.2685499 22.4312302,10.6044696 L23.5,19.395995 C23.5,19.7295916 23.2292016,20 22.8946585,20 L9.10534152,20 C8.77079844,20 8.5,19.7295916 8.5,19.395995 L9.56876977,10.6044696 Z M8.5,22.9994398 C8.5,22.4478058 9.11883871,22 9.88322581,22 L11.1167742,22 C11.8811613,22 12.5,22.4478058 12.5,22.9994398 C12.5,23.5521942 11.8811613,24 11.1167742,24 L9.88322581,24 C9.11883871,24 8.5,23.5521942 8.5,22.9994398 Z M22.1186385,24 L20.8839383,24 C20.1191575,24 19.5,23.5521942 19.5,22.9994398 C19.5,22.4478058 20.1191575,22 20.8839383,22 L22.1186385,22 C22.8808374,22 23.4999948,22.4478058 23.4999948,22.9994398 C23.5020604,23.5521942 22.8829029,24 22.1186385,24 Z"/>
</svg>
