<svg xmlns="http://www.w3.org/2000/svg" width="32" height="32" viewBox="0 0 32 32">
  <path fill="#000000" fill-rule="evenodd" d="M24.7791897,1.76281935 L18.8140157,1.12198987 C17.2598777,0.955031222 14.7400269,0.954812721 13.1933287,1.12069134 L7.20594908,1.76281935 L3.5,5.32532411 L3.5,24.3131773 L6.96842701,24.3131773 L5.37491611,28.8140267 C5.06570596,29.6924838 5.54318395,30.7295951 6.50581027,30.940533 C7.66498878,31.1906837 8.51303956,30.5849133 8.76807801,29.8772798 L8.95695987,29.3490336 L23.0430401,29.3490336 L23.2324014,29.8772798 C23.9064316,31.2646021 25.3033903,31.000479 25.4941897,30.940533 C26.4290111,30.650268 26.934294,29.6996953 26.6255633,28.8140267 L25.031573,24.3104126 L28.5,24.3131773 L28.5,5.32532411 L24.7791897,1.76281935 Z M10.1348348,25.9952114 L10.7321617,24.3189764 L21.252977,24.3189764 L21.8503039,25.9952114 L10.1348348,25.9952114 Z M19.3653846,20.6255165 C18.5669735,20.6255165 17.9230769,19.9909027 17.9230769,19.2108143 C17.9230769,18.4276845 18.5700741,17.796112 19.3653846,17.796112 C20.1637957,17.796112 20.8076923,18.4307258 20.8076923,19.2108143 C20.8066588,19.9909027 20.1596615,20.6255165 19.3653846,20.6255165 Z M12.6346154,20.6255165 C11.8362043,20.6255165 11.1923077,19.9909027 11.1923077,19.2108143 C11.1923077,18.4276845 11.8393049,17.796112 12.6346154,17.796112 C13.4330265,17.796112 14.0769231,18.4307258 14.0769231,19.2108143 C14.0758895,19.9909027 13.4288923,20.6255165 12.6346154,20.6255165 Z M14.586834,10.6841875 L6.82138163,10.6841875 C6.42827726,10.6841875 6.10612343,10.3813023 6.10612343,10.0112596 L6.10612343,5.79137241 C6.10612343,5.42178038 6.42827726,5.11889521 6.82138163,5.11889521 L14.5925868,5.11889521 C14.9856911,5.11889521 15.307845,5.42178038 15.307845,5.79137241 L15.307845,10.0112596 C15.3020922,10.3813023 14.9799384,10.6841875 14.586834,10.6841875 Z M25.1637571,10.6841875 L17.3983047,10.6841875 C17.0052003,10.6841875 16.6830465,10.3813023 16.6830465,10.0112596 L16.6830465,5.79137241 C16.6830465,5.42178038 17.0052003,5.11889521 17.3983047,5.11889521 L25.1695099,5.11889521 C25.5626142,5.11889521 25.8847681,5.42178038 25.8847681,5.79137241 L25.8847681,10.0112596 C25.8790153,10.3813023 25.5568615,10.6841875 25.1637571,10.6841875 Z"/>
</svg>
