<svg xmlns="http://www.w3.org/2000/svg" width="375" height="93" viewBox="0 0 375 93">
  <path fill="#A9C112" d="M368.042453,550.056288 L361.084906,550.056288 L361.084906,547.368154 L352.40566,547.368154 L352.40566,550.056288 L350.566038,550.056288 L350.566038,551.235294 L347.122642,551.235294 L347.122642,554.32429 L338.443396,554.32429 L338.443396,560.643763 L335.825472,558.828093 L332.523585,558.828093 L332.523585,558.26217 L332.523585,554.913793 L332.523585,554.34787 L332.523585,552.815162 L332.523585,551.258874 L330.731132,551.258874 L330.731132,552.815162 L328.938679,552.815162 L328.938679,554.937373 L325.400943,554.937373 L325.400943,556.25786 L324.245283,556.25786 L324.245283,554.112069 L320.023585,554.112069 L320.023585,556.25786 L317.051887,556.25786 L317.051887,563.308316 L315.896226,563.308316 L315.896226,552.060598 L313.490566,552.060598 L313.490566,550.692951 L308.113208,550.692951 L308.113208,549.537525 L302.40566,549.537525 L302.40566,544.939402 L295.660377,544.939402 L295.660377,549.490365 L292.216981,549.490365 L292.216981,544.939402 L290.495283,544.939402 L290.495283,543.689655 L289.245283,541.072262 L287.641509,541.072262 L287.641509,539.822515 L283.183962,539.822515 L283.183962,541.072262 L281.34434,541.072262 L279.740566,543.689655 L279.740566,545.505325 L279.740566,552.815162 L276.438679,552.815162 L276.438679,554.34787 L272.995283,554.34787 L272.995283,553.546146 L268.773585,553.546146 L268.773585,552.013438 L263.514151,552.013438 L263.514151,550.645791 L258.443396,550.645791 C258.160377,548.806542 256.627358,547.391734 254.787736,547.391734 C252.948113,547.391734 251.415094,548.806542 251.132075,550.645791 L244.693396,550.645791 L244.693396,552.791582 L244.127358,562.223631 L243.65566,559.181795 L241.509434,559.181795 L241.509434,558.285751 L236.34434,558.285751 L236.34434,553.310345 L229.599057,553.310345 L229.599057,551.989858 L223.537736,551.989858 L223.537736,553.310345 L219.528302,553.310345 L219.528302,554.064909 L215.660377,554.064909 L215.660377,552.815162 L209.504717,552.815162 L209.504717,554.064909 L207.358491,554.064909 L207.358491,555.880578 L204.386792,555.880578 L204.386792,557.484026 L203.231132,557.484026 L203.231132,546.63717 L201.721698,546.63717 L201.721698,545.599645 L201.721698,543.265213 L202.122642,542.156947 L200.330189,539.751775 L200.330189,541.001521 L199.528302,528.103195 L199.528302,526.853448 L199.528302,524.448276 L197.712264,525.815923 L197.712264,526.853448 L193.396226,526.853448 L193.396226,545.599645 L187.900943,545.599645 L187.900943,569.698529 L182.193396,569.698529 L182.193396,555.880578 L177.028302,555.880578 L177.028302,552.791582 L171.533019,552.791582 L171.533019,550.645791 L169.033019,550.645791 L169.033019,552.791582 L166.886792,552.791582 L166.886792,550.645791 L166.886792,549.466785 L166.886792,547.368154 L165.471698,549.466785 L163.79717,546.024087 L162.075472,549.466785 L157.830189,549.466785 L156.698113,546.024087 L156.698113,549.466785 L156.698113,550.622211 L156.698113,566.185091 L154.764151,566.185091 L154.764151,559.228955 L144.976415,559.228955 L144.976415,567.576318 L139.504717,567.576318 L136.698113,536.82784 L128.632075,535.790314 L128.632075,564.416582 L126.627358,564.958925 L126.627358,566.963235 L122.075472,566.963235 L122.075472,572.811105 L120.825472,572.811105 L120.825472,543.100152 L119.811321,533.715264 L118.443396,533.715264 L118.443396,525.15568 L116.886792,525.15568 L116.415094,523.905933 C116.415094,523.905933 114.127358,523.788032 113.231132,523.104209 C112.334906,522.420385 107.735849,519.237069 107.735849,519.237069 L106.839623,502 L106.839623,525.17926 L106.839623,528.150355 L106.839623,567.552738 L102.382075,567.552738 L102.382075,566.208671 L99.8820755,566.208671 L99.8820755,531.687373 L97.240566,530.272566 L97.240566,518.317444 L90.4009434,518.317444 L90.4009434,555.904158 L89.2688679,553.852688 L87.3349057,554.064909 L86.3915094,555.880578 L85.495283,561.586968 L84.245283,561.586968 L84.245283,564.08646 L83.5613208,577.432809 L80.259434,577.432809 L80.259434,572.811105 C79.4811321,572.245183 79.1273585,571.278398 78.8915094,571.207657 C78.5377358,571.089757 76.9575472,571.207657 76.9575472,571.207657 L76.6509434,572.811105 L74.9056604,572.811105 L74.9056604,580.686866 L71.9339623,580.686866 L71.9339623,574.060852 L61.5330189,574.060852 L61.5330189,571.207657 L60.6367925,568.425203 L56.7688679,568.425203 L57.0518868,571.207657 L54.8349057,571.207657 L54.8349057,569.698529 L52.5943396,569.698529 L52.5943396,570.382353 C51.6037736,568.826065 50.1886792,566.703854 49.6226415,566.137931 C48.7264151,565.241886 46.1792453,563.732759 44.9292453,564.08646 C44.2216981,564.275101 43.7028302,564.935345 43.4198113,565.454108 L42.0754717,565.454108 L42.0754717,564.0393 L38.6320755,564.0393 L38.6320755,565.454108 L35.7783019,565.454108 L35.7783019,575.051217 L35.2122642,576.206643 L32.8066038,576.206643 L32.8066038,571.184077 L31.1556604,571.184077 L29.4339623,569.674949 L27.9009434,571.184077 L27.4292453,558.497972 C27.4292453,558.497972 23.0896226,557.696247 21.4858491,558.497972 C19.8820755,559.299696 18.7028302,562.813134 18.7028302,565.689909 L18.7028302,572.811105 L16.8632075,572.811105 L16.8632075,581.842292 L15.259434,581.842292 L15.259434,569.72211 L15.259434,565.501268 L15.259434,564.133621 L10.6132075,564.133621 L10.6132075,565.501268 L7.99528302,565.501268 L7.99528302,576.253803 L6.74528302,576.253803 L6.74528302,571.70284 L0,571.70284 L0,582.101673 L0,592.028905 L0,595 L375,595 L375,587.595842 L375,582.101673 L375,566.208671 L368.042453,566.208671 L368.042453,550.056288 Z" transform="translate(0 -502)"/>
</svg>
