<svg xmlns="http://www.w3.org/2000/svg" width="96" height="96" viewBox="0 0 96 96">
  <g fill="none" fill-rule="evenodd">
    <circle cx="48" cy="48" r="48" fill="#3F4550"/>
    <path fill="#FFFFFF" d="M43.6319703,72.3445693 C43.198263,71.9076133 42.9814126,71.3770318 42.9814126,70.752809 L42.9814126,52.494382 L25.2304833,52.494382 C24.6109015,52.494382 24.0842649,52.2759073 23.6505576,51.8389513 C23.2168504,51.4019953 23,50.8714139 23,50.247191 L23,45.1910112 C23,44.5667884 23.2168504,44.0362069 23.6505576,43.5992509 C24.0842649,43.1622949 24.6109015,42.9438202 25.2304833,42.9438202 L42.9814126,42.9438202 L42.9814126,25.247191 C42.9814126,24.5605459 43.198263,24.0143591 43.6319703,23.6086142 C44.0656775,23.2028694 44.5923141,23 45.2118959,23 L50.7881041,23 C51.4696441,23 52.01177,23.2028694 52.4144981,23.6086142 C52.8172263,24.0143591 53.0185874,24.5605459 53.0185874,25.247191 L53.0185874,42.9438202 L70.7695167,42.9438202 C71.3890985,42.9438202 71.9157351,43.1622949 72.3494424,43.5992509 C72.7831496,44.0362069 73,44.5667884 73,45.1910112 L73,50.247191 C73,50.8714139 72.7986389,51.4019953 72.3959108,51.8389513 C71.9931826,52.2759073 71.4510567,52.494382 70.7695167,52.494382 L53.0185874,52.494382 L53.0185874,70.752809 C53.0185874,71.3770318 52.8172263,71.9076133 52.4144981,72.3445693 C52.01177,72.7815253 51.4696441,73 50.7881041,73 L45.2118959,73 C44.5923141,73 44.0656775,72.7815253 43.6319703,72.3445693 Z"/>
  </g>
</svg>
