<svg xmlns="http://www.w3.org/2000/svg" width="71" height="94" viewBox="0 0 71 94">
  <g fill="none" fill-rule="evenodd" transform="translate(-1 -1)">
    <path fill="#3F4550" d="M66.776759,47.5913471 L71.4833834,14.1019746 C71.9133507,11.0425976 69.7867529,8.23455791 66.7368834,7.8059267 L61.8066462,7.11302705 L66.776759,47.5913471 Z M12.0841405,6.72883869 L12.2199709,5.76235506 C12.6476072,2.71956465 15.4653605,0.600184069 18.5165522,1.0290011 L37.1628234,3.64956362 L12.0841405,6.72883869 Z"/>
    <path fill="#3F4550" d="M34.5197045,53.2714512 C34.9789848,51.5064279 35.3139982,49.7093347 35.5333293,47.9119568 C35.9061014,44.8571594 35.9101585,41.9030416 35.576303,40.3874548 C34.5225984,35.559571 29.9933799,32.2954464 25.0897439,32.8284878 C20.1741027,33.3617034 16.4625771,37.6778366 16.4625771,42.6211992 C16.4625771,42.7968041 16.4711683,42.9621764 16.4862456,43.1259982 C16.4983713,43.3405513 16.4962003,43.4387764 16.4926228,43.5517714 C16.4806554,43.9297578 16.4559751,44.3513676 16.4153985,44.8067937 C16.3032098,46.0659849 16.0914498,47.352112 15.7617214,48.5807 C14.9570656,51.5788967 13.6232949,53.638903 11.7998217,54.5336235 C11.3635539,54.6933704 10.9381113,54.8696315 10.52362,55.0632113 L9.47301075,55.5999803 C8.05274407,56.4009939 6.78614577,57.4089494 5.7057421,58.5766899 L5.7057421,11.0643481 C5.7057421,7.98441528 8.20034328,5.48763642 11.2805711,5.48763642 L59.9597822,5.48763642 C63.0386752,5.48763642 65.5346112,7.9752913 65.5346112,11.0643481 L65.5346112,86.9440692 C65.5346112,90.0240021 63.04001,92.5207809 59.9597822,92.5207809 L47.1285488,92.5207809 C47.750562,91.3950739 48.1046907,90.1003016 48.1046907,88.7234572 C48.1046907,88.2165 48.0567458,87.7207196 47.965149,87.240441 C51.6058455,86.5633217 54.3579743,83.3614758 54.3579743,79.519941 C54.3579743,77.7666829 53.7839307,76.1466202 52.8135052,74.8392398 C53.7136345,73.5607257 54.2422354,72.0008559 54.2422354,70.3181183 C54.2422354,67.1919514 52.417966,64.4915124 49.7767405,63.2303597 C49.9637936,62.5585404 50.0638051,61.8503827 50.0638051,61.1188358 C50.0638051,56.7833294 46.5539054,53.2714512 42.2308493,53.2714512 L34.5197045,53.2714512 Z" transform="rotate(-7 35.62 49.004)"/>
    <path fill="#FFFFFF" fill-rule="nonzero" d="M46.4612851,71.3662275 L46.452837,71.3662275 C45.8580908,71.703241 45.2337762,71.9801339 44.5874965,72.2070676 C37.2435631,75.5450252 37.3043894,87.0178784 37.3119927,87.6165431 C37.3280441,87.7401711 37.3491644,87.8604121 37.3491644,87.9823467 C37.3491644,90.7970019 35.2346049,93.3220627 32.4399734,93.6252055 C29.6512556,93.9283482 27.0712058,92.0688467 26.4722355,89.3244732 C26.1402252,87.817227 26.0853125,79.9973289 29.4958105,72.8167403 L29.4290706,72.8167403 C30.1361765,71.8895298 30.5763225,70.7404663 30.5763225,69.48471 C30.5763225,68.0325037 29.9967829,66.7234011 29.0818536,65.7335299 C31.5909394,65.3634925 33.2923867,63.2397995 33.2923867,60.2854276 C33.2923867,58.3412494 32.2853732,56.6324725 30.7672496,55.6485287 C32.2220124,54.65273 33.1783374,52.9752836 33.1783374,51.0844517 C33.1783374,48.0411692 30.7140266,45.565221 27.6803138,45.5559065 C28.5597611,44.57789 29.111422,43.2967308 29.111422,41.8809354 C29.111422,40.4676804 28.5597611,39.1865212 27.6803138,38.2059644 L40.9387621,38.2059644 C47.1675463,38.2059644 52.2178205,43.2679407 52.2178205,49.5128512 L52.2178205,61.5132405 C52.2186653,65.7470782 49.8979722,69.4279766 46.4612851,71.3662275 Z M23.5981919,45.5550597 L17.6997284,45.5550597 C15.6789429,45.5550597 14.0400115,43.9097904 14.0400115,41.8800887 C14.0400115,39.8529272 15.6797877,38.2051176 17.6997284,38.2051176 L21.6154228,38.2051176 L23.5981919,38.2051176 C25.6189774,38.2051176 27.2629777,39.8529272 27.2629777,41.8800887 C27.2629777,43.9097904 25.6189774,45.5550597 23.5981919,45.5550597 Z M23.5981919,47.4052468 L27.6676417,47.4052468 C29.6918065,47.4052468 31.3298931,49.0547499 31.3298931,51.0836049 C31.3298931,53.1090728 29.6926513,54.758576 27.6676417,54.758576 L11.565563,54.758576 L11.4506688,54.758576 C9.42396958,54.758576 7.78672779,53.1090728 7.78672779,51.0836049 C7.78672779,49.0547499 9.42396958,47.4052468 11.4506688,47.4052468 L17.6988836,47.4052468 L23.5981919,47.4052468 L23.5981919,47.4052468 Z M11.5647181,56.6104566 L27.6667969,56.6104566 L27.7808462,56.6104566 C29.8075454,56.6104566 31.4447872,58.2582662 31.4447872,60.2854276 C31.4447872,62.3125891 30.329638,63.9578584 28.3046284,63.9578584 L27.7808462,63.9578584 L25.0630924,63.9578584 L15.7473725,63.9578584 L11.5647181,63.9578584 C9.54055337,63.9578584 7.90246676,62.3125891 7.90246676,60.2854276 C7.90246676,58.2582662 9.54055337,56.6104566 11.5647181,56.6104566 Z M25.0630924,65.8122793 C27.0872572,65.8122793 28.7295679,67.455855 28.7295679,69.48471 C28.7295679,71.5161053 27.088102,73.1579876 25.0630924,73.1579876 L15.7473725,73.1579876 C13.726587,73.1579876 12.0808971,71.5161053 12.0808971,69.48471 C12.0808971,67.455855 13.7257421,65.8122793 15.7473725,65.8122793 L25.0630924,65.8122793 L25.0630924,65.8122793 Z" transform="rotate(173 30.002 65.931)"/>
  </g>
</svg>
