<svg xmlns="http://www.w3.org/2000/svg" width="96" height="96" viewBox="0 0 96 96">
  <g fill="none" fill-rule="evenodd">
    <circle cx="48" cy="48" r="48" fill="#3F4550"/>
    <path fill="#FFFFFF" d="M44.913,75.8905 C44.6189985,75.6174986 44.472,75.2500023 44.472,74.788 L44.472,70.378 C41.4479849,70.0839985 38.8545108,69.3490059 36.6915,68.173 C34.5284892,66.9969941 32.8905056,65.5585085 31.7775,63.8575 C30.6644944,62.1564915 30.0660004,60.3400097 29.982,58.408 C29.982,58.0719983 30.1184986,57.7675014 30.3915,57.4945 C30.6645014,57.2214986 30.9899981,57.085 31.368,57.085 L37.038,57.085 C37.5420025,57.085 37.9304986,57.1794991 38.2035,57.3685 C38.4765014,57.5575009 38.7389987,57.8619979 38.991,58.282 C39.4530023,59.7100071 40.4294925,60.9069952 41.9205,61.873 C43.4115075,62.8390048 45.458987,63.322 48.063,63.322 C50.9610145,63.322 53.1554925,62.8285049 54.6465,61.8415 C56.1375075,60.8544951 56.883,59.5000086 56.883,57.778 C56.883,56.6439943 56.5050038,55.6990038 55.749,54.943 C54.9929962,54.1869962 53.8485077,53.5255028 52.3155,52.9585 C50.7824923,52.3914972 48.5250149,51.709004 45.543,50.911 C40.5869752,49.7349941 36.9540115,48.1810097 34.644,46.249 C32.3339884,44.3169903 31.179,41.5450181 31.179,37.933 C31.179,34.6569836 32.3654881,31.8850113 34.7385,29.617 C37.1115119,27.3489887 40.3559794,25.9630025 44.472,25.459 L44.472,21.112 C44.472,20.6499977 44.6189985,20.2825014 44.913,20.0095 C45.2070015,19.7364986 45.5639979,19.6 45.984,19.6 L49.89,19.6 C50.3520023,19.6 50.7194986,19.7364986 50.9925,20.0095 C51.2655014,20.2825014 51.402,20.6499977 51.402,21.112 L51.402,25.585 C54.1320136,25.9630019 56.4734902,26.7714938 58.4265,28.0105 C60.3795098,29.2495062 61.8704949,30.6879918 62.8995,32.326 C63.9285051,33.9640082 64.4849996,35.5599922 64.569,37.114 C64.569,37.4920019 64.4430013,37.8069987 64.191,38.059 C63.9389987,38.3110013 63.6240019,38.437 63.246,38.437 L57.261,38.437 C56.3789956,38.437 55.7700017,38.0590038 55.434,37.303 C55.1819987,35.9589933 54.352507,34.8355045 52.9455,33.9325 C51.538493,33.0294955 49.7850105,32.578 47.685,32.578 C45.3749884,32.578 43.5585066,33.0189956 42.2355,33.901 C40.9124934,34.7830044 40.251,36.0639916 40.251,37.744 C40.251,38.8780057 40.5764967,39.8229962 41.2275,40.579 C41.8785033,41.3350038 42.9284928,42.0069971 44.3775,42.595 C45.8265072,43.1830029 47.8949866,43.8129966 50.583,44.485 C54.3210187,45.3250042 57.292489,46.2699948 59.4975,47.32 C61.702511,48.3700053 63.3299947,49.692992 64.38,51.289 C65.4300052,52.885008 65.955,54.9219876 65.955,57.4 C65.955,61.0540183 64.6425131,64.0149887 62.0175,66.283 C59.3924869,68.5510113 55.8540223,69.9159977 51.402,70.378 L51.402,74.788 C51.402,75.2500023 51.2655014,75.6174986 50.9925,75.8905 C50.7194986,76.1635014 50.3520023,76.3 49.89,76.3 L45.984,76.3 C45.5639979,76.3 45.2070015,76.1635014 44.913,75.8905 Z"/>
  </g>
</svg>
