<svg xmlns="http://www.w3.org/2000/svg" width="360" height="20" viewBox="0 0 360 20">
  <g fill="#FFFFFF" fill-rule="evenodd">
    <polygon points="102.407 18.266 102.407 15.041 116.285 15.041 116.285 18.266 114.957 18.266 114.957 16.659 112.155 16.659 112.145 18.266 106.843 18.266 106.843 16.659 104.088 16.659 104.088 18.266"/>
    <path d="M106.5975 18.2663333C106.5975 19.884 104.39 19.884 104.39 18.2663333 104.39 16.6486667 106.5975 16.6486667 106.5975 18.2663333M114.6825 18.2663333C114.6825 19.884 112.4675 19.884 112.4675 18.2663333 112.4675 16.6486667 114.6825 16.6486667 114.6825 18.2663333"/>
    <polygon points="104.927 14.87 112.955 14.87 112.955 14.492 104.927 14.492"/>
    <polygon points="64.86 18.266 64.86 15.041 78.728 15.041 78.728 18.266 77.397 18.266 77.397 16.659 74.595 16.659 74.585 18.266 69.282 18.266 69.282 16.659 66.53 16.659 66.53 18.266"/>
    <path d="M69.04 18.2663333C69.04 19.884 66.8225 19.884 66.8225 18.2663333 66.8225 16.6486667 69.04 16.6486667 69.04 18.2663333M77.125 18.2663333C77.125 19.884 74.9075 19.884 74.9075 18.2663333 74.9075 16.6486667 77.125 16.6486667 77.125 18.2663333"/>
    <polygon points="67.37 14.87 75.397 14.87 75.397 14.492 67.37 14.492"/>
    <polygon points="120.875 13.963 121.315 13.963 121.315 .776 120.875 .776"/>
    <polygon points="119.683 13.056 120.123 13.056 120.123 1.686 119.683 1.686"/>
    <polygon points="120.28 13.056 120.71 13.056 120.71 1.686 120.28 1.686"/>
    <polygon points="119.078 13.056 119.507 13.056 119.507 1.686 119.078 1.686"/>
    <polygon points="61.685 13.114 62.115 13.114 62.115 1.745 61.685 1.745"/>
    <polygon points="60.495 13.114 60.925 13.114 60.925 1.745 60.495 1.745"/>
    <polygon points="61.09 13.114 61.53 13.114 61.53 1.745 61.09 1.745"/>
    <polygon points="59.888 14.183 60.318 14.183 60.318 .687 59.888 .687"/>
    <polygon points="123.97 18.335 123.97 15.113 137.838 15.113 137.838 18.335 136.51 18.335 136.51 16.73 133.708 16.73 133.697 18.335 128.395 18.335 128.395 16.73 125.64 16.73 125.64 18.335"/>
    <path d="M128.15 18.3353333C128.15 19.953 125.9325 19.953 125.9325 18.3353333 125.9325 16.7304444 128.15 16.7304444 128.15 18.3353333M136.2375 18.3353333C136.2375 19.953 134.02 19.953 134.02 18.3353333 134.02 16.7304444 136.2375 16.7304444 136.2375 18.3353333"/>
    <polygon points="126.48 14.942 134.518 14.942 134.518 14.563 126.48 14.563"/>
    <polygon points="158.425 18.266 158.425 15.041 172.29 15.041 172.29 18.266 170.972 18.266 170.972 16.659 168.16 16.659 168.15 18.266 162.847 18.266 162.847 16.659 160.095 16.659 160.095 18.266"/>
    <path d="M162.6025 18.2663333C162.6025 19.884 160.3875 19.884 160.3875 18.2663333 160.3875 16.6486667 162.6025 16.6486667 162.6025 18.2663333M170.69 18.2663333C170.69 19.884 168.4725 19.884 168.4725 18.2663333 168.4725 16.6486667 170.69 16.6486667 170.69 18.2663333"/>
    <polygon points="160.933 14.87 168.97 14.87 168.97 14.492 160.933 14.492"/>
    <polygon points="178.14 13.155 179.42 13.155 179.42 11.308 178.14 11.308"/>
    <polygon points="179.528 13.045 179.713 13.045 179.713 11.417 179.528 11.417"/>
    <polygon points="180.475 13.035 180.623 13.035 180.623 11.438 180.475 11.438"/>
    <polygon points="179.78 12.596 180.493 12.596 180.493 11.867 179.78 11.867"/>
    <path d="M76.92.387666667L118.63.387666667 118.63 14.1748889 62.565 14.1748889 62.565.387666667 76.92.387666667zM75.9925 3.32144444L65.9525 3.32144444 65.9525 8.92322222 75.9925 8.92322222 75.9925 3.32144444zM114.9575 3.32144444L104.9275 3.32144444 104.9275 8.92322222 114.9575 8.92322222 114.9575 3.32144444zM101.97 3.32144444L91.94 3.32144444 91.94 8.92322222 101.97 8.92322222 101.97 3.32144444zM88.98 3.32144444L78.95 3.32144444 78.95 8.92322222 88.98 8.92322222 88.98 3.32144444zM136.325.387666667L178.0325.387666667 178.0325 14.1748889 121.96 14.1748889 121.96.387666667 136.325.387666667zM135.3975 3.32144444L125.3575 3.32144444 125.3575 8.92322222 135.3975 8.92322222 135.3975 3.32144444zM174.3625 3.32144444L164.3325 3.32144444 164.3325 8.92322222 174.3625 8.92322222 174.3625 3.32144444zM161.3725 3.32144444L151.345 3.32144444 151.345 8.92322222 161.3725 8.92322222 161.3725 3.32144444zM148.375 3.32144444L138.345 3.32144444 138.345 8.92322222 148.375 8.92322222 148.375 3.32144444z"/>
    <polygon points="56.93 18.366 56.93 15.131 43.053 15.131 43.053 18.366 44.38 18.366 44.38 16.748 47.182 16.748 47.193 18.366 52.495 18.366 52.495 16.748 55.25 16.748 55.25 18.366"/>
    <path d="M54.9575 18.366C54.9575 19.9836667 52.74 19.9836667 52.74 18.366 52.74 16.7483333 54.9575 16.7483333 54.9575 18.366M46.87 18.366C46.87 19.9836667 44.655 19.9836667 44.655 18.366 44.655 16.7483333 46.87 16.7483333 46.87 18.366"/>
    <polygon points="46.383 14.962 54.42 14.962 54.42 14.584 46.383 14.584"/>
    <polygon points="22.468 18.297 22.468 15.062 8.6 15.062 8.6 18.297 9.928 18.297 9.928 16.679 12.73 16.679 12.74 18.297 18.043 18.297 18.043 16.679 20.797 16.679 20.797 18.297"/>
    <path d="M20.505 18.297C20.505 19.9044444 18.2875 19.9044444 18.2875 18.297 18.2875 16.6793333 20.505 16.6793333 20.505 18.297M12.4175 18.297C12.4175 19.9044444 10.2 19.9044444 10.2 18.297 10.2 16.6793333 12.4175 16.6793333 12.4175 18.297"/>
    <polygon points="11.93 14.89 19.968 14.89 19.968 14.512 11.93 14.512"/>
    <polygon points="1.46 13.176 2.74 13.176 2.74 11.328 1.46 11.328"/>
    <polygon points="1.177 13.076 1.363 13.076 1.363 11.448 1.177 11.448"/>
    <polygon points=".28 13.056 .427 13.056 .427 11.458 .28 11.458"/>
    <polygon points=".398 12.626 1.11 12.626 1.11 11.898 .398 11.898"/>
    <path d="M58.9325,0.408111111 L58.9325,14.1927778 L2.8575,14.1927778 L2.8575,0.408111111 L58.9325,0.408111111 Z M45.505,8.94366667 L55.5425,8.94366667 L55.5425,3.34188889 L45.505,3.34188889 L45.505,8.94366667 Z M6.53,8.94366667 L16.5575,8.94366667 L16.5575,3.34188889 L6.53,3.34188889 L6.53,8.94366667 Z M19.5275,8.94366667 L29.5575,8.94366667 L29.5575,3.34188889 L19.5275,3.34188889 L19.5275,8.94366667 Z M32.515,8.94366667 L42.545,8.94366667 L42.545,3.34188889 L32.515,3.34188889 L32.515,8.94366667 Z"/>
    <polygon points="281.408 18.266 281.408 15.041 295.285 15.041 295.285 18.266 293.957 18.266 293.957 16.659 291.155 16.659 291.145 18.266 285.842 18.266 285.842 16.659 283.087 16.659 283.087 18.266"/>
    <path d="M285.5975 18.2663333C285.5975 19.884 283.39 19.884 283.39 18.2663333 283.39 16.6486667 285.5975 16.6486667 285.5975 18.2663333M293.6825 18.2663333C293.6825 19.884 291.4675 19.884 291.4675 18.2663333 291.4675 16.6486667 293.6825 16.6486667 293.6825 18.2663333"/>
    <polygon points="283.928 14.87 291.955 14.87 291.955 14.492 283.928 14.492"/>
    <polygon points="243.86 18.266 243.86 15.041 257.728 15.041 257.728 18.266 256.397 18.266 256.397 16.659 253.595 16.659 253.585 18.266 248.282 18.266 248.282 16.659 245.53 16.659 245.53 18.266"/>
    <path d="M248.04 18.2663333C248.04 19.884 245.8225 19.884 245.8225 18.2663333 245.8225 16.6486667 248.04 16.6486667 248.04 18.2663333M256.125 18.2663333C256.125 19.884 253.9075 19.884 253.9075 18.2663333 253.9075 16.6486667 256.125 16.6486667 256.125 18.2663333"/>
    <polygon points="246.37 14.87 254.398 14.87 254.398 14.492 246.37 14.492"/>
    <polygon points="299.875 13.963 300.315 13.963 300.315 .776 299.875 .776"/>
    <polygon points="298.683 13.056 299.123 13.056 299.123 1.686 298.683 1.686"/>
    <polygon points="299.28 13.056 299.71 13.056 299.71 1.686 299.28 1.686"/>
    <polygon points="298.077 13.056 298.507 13.056 298.507 1.686 298.077 1.686"/>
    <polygon points="240.685 13.114 241.115 13.114 241.115 1.745 240.685 1.745"/>
    <polygon points="239.495 13.114 239.925 13.114 239.925 1.745 239.495 1.745"/>
    <polygon points="240.09 13.114 240.53 13.114 240.53 1.745 240.09 1.745"/>
    <polygon points="238.887 14.183 239.317 14.183 239.317 .687 238.887 .687"/>
    <polygon points="302.97 18.335 302.97 15.113 316.837 15.113 316.837 18.335 315.51 18.335 315.51 16.73 312.707 16.73 312.697 18.335 307.395 18.335 307.395 16.73 304.64 16.73 304.64 18.335"/>
    <path d="M307.15 18.3353333C307.15 19.953 304.9325 19.953 304.9325 18.3353333 304.9325 16.7304444 307.15 16.7304444 307.15 18.3353333M315.2375 18.3353333C315.2375 19.953 313.02 19.953 313.02 18.3353333 313.02 16.7304444 315.2375 16.7304444 315.2375 18.3353333"/>
    <polygon points="305.48 14.942 313.517 14.942 313.517 14.563 305.48 14.563"/>
    <polygon points="337.425 18.266 337.425 15.041 351.29 15.041 351.29 18.266 349.973 18.266 349.973 16.659 347.16 16.659 347.15 18.266 341.848 18.266 341.848 16.659 339.095 16.659 339.095 18.266"/>
    <path d="M341.6025 18.2663333C341.6025 19.884 339.3875 19.884 339.3875 18.2663333 339.3875 16.6486667 341.6025 16.6486667 341.6025 18.2663333M349.69 18.2663333C349.69 19.884 347.4725 19.884 347.4725 18.2663333 347.4725 16.6486667 349.69 16.6486667 349.69 18.2663333"/>
    <polygon points="339.933 14.87 347.97 14.87 347.97 14.492 339.933 14.492"/>
    <polygon points="357.14 13.155 358.42 13.155 358.42 11.308 357.14 11.308"/>
    <polygon points="358.527 13.045 358.712 13.045 358.712 11.417 358.527 11.417"/>
    <polygon points="359.475 13.035 359.623 13.035 359.623 11.438 359.475 11.438"/>
    <polygon points="358.78 12.596 359.493 12.596 359.493 11.867 358.78 11.867"/>
    <path d="M255.92.387666667L297.63.387666667 297.63 14.1748889 241.565 14.1748889 241.565.387666667 255.92.387666667zM254.9925 3.32144444L244.9525 3.32144444 244.9525 8.92322222 254.9925 8.92322222 254.9925 3.32144444zM293.9575 3.32144444L283.9275 3.32144444 283.9275 8.92322222 293.9575 8.92322222 293.9575 3.32144444zM280.97 3.32144444L270.94 3.32144444 270.94 8.92322222 280.97 8.92322222 280.97 3.32144444zM267.98 3.32144444L257.95 3.32144444 257.95 8.92322222 267.98 8.92322222 267.98 3.32144444zM315.325.387666667L357.0325.387666667 357.0325 14.1748889 300.96 14.1748889 300.96.387666667 315.325.387666667zM314.3975 3.32144444L304.3575 3.32144444 304.3575 8.92322222 314.3975 8.92322222 314.3975 3.32144444zM353.3625 3.32144444L343.3325 3.32144444 343.3325 8.92322222 353.3625 8.92322222 353.3625 3.32144444zM340.3725 3.32144444L330.345 3.32144444 330.345 8.92322222 340.3725 8.92322222 340.3725 3.32144444zM327.375 3.32144444L317.345 3.32144444 317.345 8.92322222 327.375 8.92322222 327.375 3.32144444z"/>
    <polygon points="235.93 18.366 235.93 15.131 222.053 15.131 222.053 18.366 223.38 18.366 223.38 16.748 226.183 16.748 226.192 18.366 231.495 18.366 231.495 16.748 234.25 16.748 234.25 18.366"/>
    <path d="M233.9575 18.366C233.9575 19.9836667 231.74 19.9836667 231.74 18.366 231.74 16.7483333 233.9575 16.7483333 233.9575 18.366M225.87 18.366C225.87 19.9836667 223.655 19.9836667 223.655 18.366 223.655 16.7483333 225.87 16.7483333 225.87 18.366"/>
    <polygon points="225.382 14.962 233.42 14.962 233.42 14.584 225.382 14.584"/>
    <polygon points="201.468 18.297 201.468 15.062 187.6 15.062 187.6 18.297 188.928 18.297 188.928 16.679 191.73 16.679 191.74 18.297 197.042 18.297 197.042 16.679 199.798 16.679 199.798 18.297"/>
    <path d="M199.505 18.297C199.505 19.9044444 197.2875 19.9044444 197.2875 18.297 197.2875 16.6793333 199.505 16.6793333 199.505 18.297M191.4175 18.297C191.4175 19.9044444 189.2 19.9044444 189.2 18.297 189.2 16.6793333 191.4175 16.6793333 191.4175 18.297"/>
    <polygon points="190.93 14.89 198.968 14.89 198.968 14.512 190.93 14.512"/>
    <polygon points="180.46 13.176 181.74 13.176 181.74 11.328 180.46 11.328"/>
    <polygon points="180.178 13.076 180.363 13.076 180.363 11.448 180.178 11.448"/>
    <polygon points="179.28 13.056 179.428 13.056 179.428 11.458 179.28 11.458"/>
    <polygon points="179.398 12.626 180.11 12.626 180.11 11.898 179.398 11.898"/>
    <path d="M237.9325,0.408111111 L237.9325,14.1927778 L181.8575,14.1927778 L181.8575,0.408111111 L237.9325,0.408111111 Z M224.505,8.94366667 L234.5425,8.94366667 L234.5425,3.34188889 L224.505,3.34188889 L224.505,8.94366667 Z M185.53,8.94366667 L195.5575,8.94366667 L195.5575,3.34188889 L185.53,3.34188889 L185.53,8.94366667 Z M198.5275,8.94366667 L208.5575,8.94366667 L208.5575,3.34188889 L198.5275,3.34188889 L198.5275,8.94366667 Z M211.515,8.94366667 L221.545,8.94366667 L221.545,3.34188889 L211.515,3.34188889 L211.515,8.94366667 Z"/>
  </g>
</svg>
